{
.appVersion = "3151";
.formatVersion = 3;
customParameters = (
{
name = vendorID;
value = ADBO;
},
{
name = panose;
value = (
2,
11,
2,
0,
0,
0,
0,
0,
0,
0
);
},
{
name = unicodeRanges;
value = (
0,
1,
7,
29,
36,
42,
43,
44,
45,
48,
49,
50,
51,
52,
54,
55,
57,
59,
61,
65,
66,
68
);
},
{
name = codePageRanges;
value = (
"1252",
"1250",
"1251",
"1258",
"932",
"936",
"bit 29",
"bit 30"
);
},
{
name = fsType;
value = (
);
}
);
date = "2021-04-29 08:43:11 +0000";
familyName = "Yaku Han JP";
featurePrefixes = (
{
automatic = 1;
code = "languagesystem DFLT dflt;
";
name = Languagesystems;
}
);
features = (
{
automatic = 1;
code = "feature vert;
feature vrt2;
";
tag = aalt;
},
{
code = "sub comma-han by comma-han.vert;
sub period-han by period-han.vert;
sub colon.full by colon.full.vert;
sub blacklenticularbracketleft by blacklenticularbracketleft.vert;
sub blacklenticularbracketright by blacklenticularbracketright.vert;
sub cornerbracketleft by cornerbracketleft.vert;
sub cornerbracketright by cornerbracketright.vert;
sub dblanglebracketleft by dblanglebracketleft.vert;
sub dblanglebracketright by dblanglebracketright.vert;
sub tortoiseshellbracketleft by tortoiseshellbracketleft.vert;
sub tortoiseshellbracketright by tortoiseshellbracketright.vert;
sub whitecornerbracketleft by whitecornerbracketleft.vert;
sub whitecornerbracketright by whitecornerbracketright.vert;
sub whitelenticularbracketleft by whitelenticularbracketleft.vert;
sub whitelenticularbracketright by whitelenticularbracketright.vert;
sub braceleft.full by braceleft.full.vert;
sub braceright.full by braceright.full.vert;
sub bracketleft.full by bracketleft.full.vert;
sub bracketright.full by bracketright.full.vert;
sub parenleft.full by parenleft.full.vert;
sub parenright.full by parenright.full.vert;
sub angleLeft by anglebracketleft.vert;
sub angleRight by anglebracketright.vert;";
tag = vert;
},
{
automatic = 1;
code = "sub comma-han by comma-han.vert;
sub period-han by period-han.vert;

glyphs = (
{
glyphname = .notdef;
lastChange = "2023-08-27 12:29:59 +0000";
layers = (
{
layerId = m01;
shapes = (
{
closed = 1;
nodes = (
(900,880,l),
(100,880,l),
(100,-120,l),
(900,-120,l)
);
},
{
closed = 1;
nodes = (
(818,830,l),
(500,421,l),
(182,830,l)
);
},
{
closed = 1;
nodes = (
(850,-29,l),
(532,380,l),
(850,789,l)
);
},
{
closed = 1;
nodes = (
(818,-70,l),
(182,-70,l),
(500,339,l)
);
},
{
closed = 1;
nodes = (
(150,-29,l),
(150,789,l),
(468,380,l)
);
}
);
vertWidth = 1000;
width = 1000;
}
);
note = ".notdef";
},
{
glyphname = "comma-han";
lastChange = "2023-08-27 13:27:02 +0000";
layers = (
{
layerId = m01;
shapes = (
{
closed = 1;
nodes = (
(337,54,o),
(262,134,o),
(180,213,o),
(144,242,q),
(40,152,l),
(75,122,o),
(151,47,o),
(225,-31,o),
(255,-69,q),
(362,23,l)
);
}
);
vertWidth = 1000;
width = 562;
}
);
note = uni3001;
unicode = 12289;
},
{
glyphname = "comma-han.vert";
lastChange = "2023-08-27 13:27:52 +0000";
layers = (
{
layerId = m01;
shapes = (
{
closed = 1;
nodes = (
(931,654,o),
(857,733,o),
(776,809,o),
(742,837,q),
(639,750,l),
(690,705,o),
(806,588,o),
(850,533,q),
(956,623,l)
);
}
);
vertWidth = 547;
width = 1000;
}
);
note = uniFE11;
unicode = 65041;
},
{
glyphname = "period-han";
lastChange = "2023-08-27 13:27:06 +0000";
layers = (
{
layerId = m01;
shapes = (
{
closed = 1;
nodes = (
(75,204,o),
(32,131,o),
(32,86,qs),
(32,42,o),
(75,-32,o),
(149,-76,o),
(193,-76,qs),
(239,-76,o),
(311,-32,o),
(355,42,o),
(355,86,qs),
(355,131,o),
(311,204,o),
(239,248,o),
(193,248,qs),
(149,248,o)
);
},
{
closed = 1;
nodes = (
(129,20,o),
(104,61,o),
(104,86,qs),
(104,111,o),
(129,152,o),
(169,176,o),
(194,176,qs),
(218,176,o),
(259,152,o),
(283,111,o),
(283,86,qs),
(283,49,o),
(231,-4,o),
(194,-4,qs),
(169,-4,o)
);
}
);
vertWidth = 1000;
width = 755;
}
);
note = uni3002;
unicode = 12290;
},
{
glyphname = "period-han.vert";
lastChange = "2023-08-27 13:27:59 +0000";
layers = (
{
layerId = m01;
shapes = (
{
closed = 1;
nodes = (
(682,782,o),
(638,709,o),
(638,666,qs),
(638,622,o),
(682,550,o),
(754,507,o),
(797,507,qs),
(842,507,o),
(913,550,o),
(956,622,o),
(956,666,qs),
(956,710,o),
(913,782,o),
(842,825,o),
(797,825,qs),
(754,825,o)
);
},
{
closed = 1;
nodes = (
(733,601,o),
(709,642,o),
(709,666,qs),
(709,690,o),
(733,730,o),
(774,753,o),
(797,753,qs),
(822,753,o),
(861,729,o),
(885,690,o),
(885,666,qs),
(885,629,o),
(834,578,o),
(797,578,qs),
(773,578,o)
);
}
);
vertWidth = 773;
width = 1000;
}
);
note = uniFE12;
unicode = 65042;
},
{
glyphname = hyphenationpoint;
lastChange = "2023-08-27 13:27:13 +0000";
layers = (
{
layerId = m01;
shapes = (
{
closed = 1;
nodes = (
(185,473,o),
(150,416,o),
(150,380,qs),
(150,345,o),
(185,287,o),
(243,252,o),
(278,252,qs),
(314,252,o),
(371,287,o),
(406,345,o),
(406,380,qs),
(406,416,o),
(371,473,o),
(314,508,o),
(278,508,qs),
(243,508,o)
);
}
);
vertWidth = 1000;
width = 556;
}
);
note = uni2027;
unicode = (8231,12539);
},
{
glyphname = colon.full;
lastChange = "2023-08-27 13:27:13 +0000";
layers = (
{
layerId = m01;
shapes = (
{
closed = 1;
nodes = (
(340,570,o),
(340,609,qs),
(340,651,o),
(285,704,o),
(245,704,qs),
(205,704,o),
(150,651,o),
(150,609,qs),
(150,570,o),
(205,516,o),
(245,516,qs),
(285,516,o)
);
},
{
closed = 1;
nodes = (
(340,93,o),
(340,132,qs),
(340,174,o),
(285,227,o),
(245,227,qs),
(205,227,o),
(150,174,o),
(150,132,qs),
(150,93,o),
(205,39,o),
(245,39,qs),
(285,39,o)
);
}
);
vertWidth = 1000;
width = 490;
}
);
note = uniFF1A;
unicode = 65306;
},
{
glyphname = exclam.full;
lastChange = "2023-08-27 13:27:13 +0000";
layers = (
{
layerId = m01;
shapes = (
{
closed = 1;
nodes = (
(316,599,l),
(321,748,l),
(155,748,l),
(160,599,l),
(187,257,l),
(289,257,l)
);
},
{
closed = 1;
nodes = (
(326,41,o),
(326,79,qs),
(326,118,o),
(276,168,o),
(238,168,qs),
(200,168,o),
(150,118,o),
(150,79,qs),
(150,41,o),
(200,-9,o),
(238,-9,qs),
(276,-9,o)
);
}
);
vertWidth = 1000;
width = 476;
}
);
note = uniFF01;
unicode = 65281;
},
{
glyphname = question.full;
lastChange = "2023-08-27 13:27:13 +0000";
layers = (
{
layerId = m01;
shapes = (
{
closed = 1;
nodes = (
(453,292,o),
(479,344,o),
(525,386,o),
(579,425,o),
(628,468,o),
(659,523,o),
(659,560,qs),
(659,627,o),
(594,716,o),
(481,760,o),
(408,760,qs),
(329,760,o),
(198,693,o),
(150,638,q),
(232,562,l),
(269,601,o),
(345,641,o),
(391,641,qs),
(431,641,o),
(488,619,o),
(518,577,o),
(518,547,qs),
(518,523,o),
(488,483,o),
(441,445,o),
(388,405,o),
(345,357,o),
(322,297,o),
(327,257,q),
(456,257,l)
);
},
{
closed = 1;
nodes = (
(480,41,o),
(480,79,qs),
(480,118,o),
(430,168,o),
(392,168,qs),
(354,168,o),
(304,118,o),
(304,79,qs),
(304,41,o),
(354,-9,o),
(392,-9,qs),
(430,-9,o)
);
}
);
vertWidth = 1000;
width = 809;
}
);
note = uniFF1F;
unicode = 65311;
},
{
glyphname = semicolon.full;
lastChange = "2023-08-27 13:27:13 +0000";
layers = (
{
layerId = m01;
shapes = (
{
closed = 1;
nodes = (
(380,37,o),
(380,130,qs),
(380,200,o),
(324,280,o),
(271,280,qs),
(232,280,o),
(174,233,o),
(174,190,qs),
(174,146,o),
(232,99,o),
(269,99,qs),
(286,99,o),
(316,111,o),
(329,122,q),
(273,211,l),
(281,105,l),
(281,55,o),
(215,-24,o),
(150,-49,q),
(182,-130,l),
(278,-98,o)
);
},
{
closed = 1;
nodes = (
(361,570,o),
(361,609,qs),
(361,651,o),
(306,704,o),
(266,704,qs),
(226,704,o),
(171,651,o),
(171,609,qs),
(171,570,o),
(226,516,o),
(266,516,qs),
(306,516,o)
);
}
);
vertWidth = 1000;
width = 530;
}
);
note = uniFF1B;
unicode = 65307;
},
{
glyphname = colon.full.vert;
lastChange = "2023-08-27 13:28:06 +0000";
layers = (
{
layerId = m01;
shapes = (
{
closed = 1;
nodes = (
(356,595,o),
(356,636,qs),
(356,677,o),
(301,730,o),
(261,730,qs),
(222,730,o),
(166,677,o),
(166,636,qs),
(166,595,o),
(222,541,o),
(261,541,qs),
(301,541,o)
);
},
{
closed = 1;
nodes = (
(834,595,o),
(834,636,qs),
(834,677,o),
(778,730,o),
(739,730,qs),
(699,730,o),
(644,677,o),
(644,636,qs),
(644,595,o),
(699,541,o),
(739,541,qs),
(778,541,o)
);
}
);
vertWidth = 489;
width = 1000;
}
);
note = glyph17776;
},
{
glyphname = angleLeft;
lastChange = "2023-08-27 13:27:32 +0000";
layers = (
{
layerId = m01;
shapes = (
{
closed = 1;
nodes = (
(586,809,l),
(487,852,l),
(200,380,l),
(487,-92,l),
(586,-49,l),
(325,380,l)
);
}
);
vertWidth = 1000;
width = 640;
}
);
note = uni2329;
unicode = (9001,12296);
},
{
glyphname = angleRight;
lastChange = "2023-08-27 13:27:44 +0000";
layers = (
{
layerId = m01;
shapes = (
{
closed = 1;
nodes = (
(440,380,l),
(153,852,l),
(54,809,l),
(315,380,l),
(54,-49,l),
(153,-92,l)
);
}
);
vertWidth = 1000;
width = 640;
}
);
note = uni3009;
unicode = (9002,12297);
},
{
glyphname = blacklenticularbracketleft;
lastChange = "2023-08-27 13:27:32 +0000";
layers = (
{
layerId = m01;
shapes = (
{
closed = 1;
nodes = (
(200,852,l),
(200,-92,l),
(512,-92,l),
(512,-87,l),
(458,-40,o),
(368,100,o),
(314,278,o),
(314,380,qs),
(314,483,o),
(368,660,o),
(458,801,o),
(512,847,q),
(512,852,l)
);
}
);
vertWidth = 1000;
width = 540;
}
);
note = uni3010;
unicode = 12304;
},
{
glyphname = blacklenticularbracketright;
lastChange = "2023-08-27 13:27:44 +0000";
layers = (
{
layerId = m01;
shapes = (
{
closed = 1;
nodes = (
(28,852,l),
(28,847,l),
(83,801,o),
(172,660,o),
(226,483,o),
(226,380,qs),
(226,278,o),
(172,100,o),
(83,-40,o),
(28,-87,q),
(28,-92,l),
(340,-92,l),
(340,852,l)
);
}
);
vertWidth = 1000;
width = 540;
}
);
note = uni3011;
unicode = 12305;
},
{
glyphname = braceleft.full;
lastChange = "2023-08-27 13:27:32 +0000";
layers = (
{
layerId = m01;
shapes = (
{
closed = 1;
nodes = (
(486,-19,l),
(456,-19,ls),
(418,-19,o),
(392,17,o),
(392,66,qs),
(392,112,o),
(397,199,o),
(397,251,qs),
(397,312,o),
(359,368,o),
(318,378,q),
(318,382,l),
(359,393,o),
(397,449,o),
(397,509,qs),
(397,561,o),
(392,650,o),
(392,695,qs),
(392,744,o),
(418,780,o),
(456,780,qs),
(486,780,l),
(486,856,l),
(422,856,ls),
(352,856,o),
(284,790,o),
(284,701,qs),
(284,662,o),
(289,601,o),
(294,542,o),
(294,505,qs),
(294,486,o),
(277,448,o),
(236,423,o),
(200,422,q),
(200,339,l),
(236,338,o),
(277,313,o),
(294,276,o),
(294,255,qs),
(294,220,o),
(289,160,o),
(284,99,o),
(284,59,qs),
(284,-29,o),
(352,-96,o),
(422,-96,qs),
(486,-96,l)
);
}
);
vertWidth = 1000;
width = 515;
}
);
note = uniFF5B;
unicode = 65371;
},
{
glyphname = braceright.full;
lastChange = "2023-08-27 13:27:44 +0000";
layers = (
{
layerId = m01;
shapes = (
{
closed = 1;
nodes = (
(29,-19,l),
(59,-19,ls),
(98,-19,o),
(123,17,o),
(123,66,qs),
(123,112,o),
(118,199,o),
(118,251,qs),
(118,312,o),
(156,368,o),
(197,378,q),
(197,382,l),
(156,393,o),
(118,449,o),
(118,509,qs),
(118,561,o),
(123,650,o),
(123,695,qs),
(123,744,o),
(98,780,o),
(59,780,qs),
(29,780,l),
(29,856,l),
(93,856,ls),
(163,856,o),
(231,790,o),
(231,701,qs),
(231,662,o),
(226,601,o),
(221,542,o),
(221,505,qs),
(221,486,o),
(238,448,o),
(280,423,o),
(315,422,q),
(315,339,l),
(280,338,o),
(238,313,o),
(221,276,o),
(221,255,qs),
(221,220,o),
(226,160,o),
(231,99,o),
(231,59,qs),
(231,-29,o),
(163,-96,o),
(93,-96,qs),
(29,-96,l)
);
}
);
vertWidth = 1000;
width = 515;
}
);
note = uniFF5D;
unicode = 65373;
},
{
glyphname = cornerbracketleft;
lastChange = "2023-08-27 13:27:32 +0000";
layers = (
{
layerId = m01;
shapes = (
{
closed = 1;
nodes = (
(319,213,l),
(319,744,l),
(532,744,l),
(532,852,l),
(200,852,l),
(200,213,l)
);
}
);
vertWidth = 1000;
width = 560;
}
);
note = uni300C;
unicode = 12300;
},
{
glyphname = cornerbracketright;
lastChange = "2023-08-27 13:27:44 +0000";
layers = (
{
layerId = m01;
shapes = (
{
closed = 1;
nodes = (
(241,547,l),
(241,16,l),
(28,16,l),
(28,-92,l),
(360,-92,l),
(360,547,l)
);
}
);
vertWidth = 1000;
width = 560;
}
);
note = uni300D;
unicode = 12301;
},
{
glyphname = dblanglebracketleft;
lastChange = "2023-08-27 13:27:32 +0000";
layers = (
{
layerId = m01;
shapes = (
{
closed = 1;
nodes = (
(482,826,l),
(399,852,l),
(200,380,l),
(399,-92,l),
(482,-66,l),
(293,380,l)
);
},
{
closed = 1;
nodes = (
(655,826,l),
(571,852,l),
(373,380,l),
(571,-92,l),
(655,-66,l),
(465,380,l)
);
}
);
vertWidth = 1000;
width = 682;
}
);
note = uni300A;
unicode = 12298;
},
{
glyphname = dblanglebracketright;
lastChange = "2023-08-27 13:27:44 +0000";
layers = (
{
layerId = m01;
shapes = (
{
closed = 1;
nodes = (
(482,380,l),
(283,852,l),
(200,826,l),
(389,380,l),
(200,-66,l),
(283,-92,l)
);
},
{
closed = 1;
nodes = (
(309,380,l),
(111,852,l),
(27,826,l),
(217,380,l),
(27,-66,l),
(111,-92,l)
);
}
);
vertWidth = 1000;
width = 682;
}
);
note = uni300B;
unicode = 12299;
},
{
glyphname = tortoiseshellbracketleft;
lastChange = "2023-08-27 13:27:32 +0000";
layers = (
{
layerId = m01;
shapes = (
{
closed = 1;
nodes = (
(482,-25,l),
(310,85,l),
(310,675,l),
(482,785,l),
(434,864,l),
(200,714,l),
(200,46,l),
(434,-104,l)
);
}
);
vertWidth = 1000;
width = 507;
}
);
note = uni3014;
unicode = 12308;
},
{
glyphname = tortoiseshellbracketright;
lastChange = "2023-08-27 13:27:44 +0000";
layers = (
{
layerId = m01;
shapes = (
{
closed = 1;
nodes = (
(25,-25,l),
(197,85,l),
(197,675,l),
(25,785,l),
(73,864,l),
(307,714,l),
(307,46,l),
(73,-104,l)
);
}
);
vertWidth = 1000;
width = 507;
}
);
note = uni3015;
unicode = 12309;
},
{
glyphname = whitecornerbracketleft;
lastChange = "2023-08-27 13:27:32 +0000";
layers = (
{
layerId = m01;
shapes = (
{
closed = 1;
nodes = (
(572,852,l),
(200,852,l),
(200,191,l),
(392,191,l),
(392,674,l),
(572,674,l)
);
},
{
closed = 1;
nodes = (
(528,718,l),
(349,718,l),
(349,235,l),
(244,235,l),
(244,808,l),
(528,808,l)
);
}
);
vertWidth = 1000;
width = 600;
}
);
note = uni300E;
unicode = 12302;
},
{
glyphname = whitecornerbracketright;
lastChange = "2023-08-27 13:27:44 +0000";
layers = (
{
layerId = m01;
shapes = (
{
closed = 1;
nodes = (
(28,-92,l),
(400,-92,l),
(400,569,l),
(208,569,l),
(208,86,l),
(28,86,l)
);
},
{
closed = 1;
nodes = (
(72,42,l),
(251,42,l),
(251,525,l),
(356,525,l),
(356,-48,l),
(72,-48,l)
);
}
);
vertWidth = 1000;
width = 600;
}
);
note = uni300F;
unicode = 12303;
},
{
glyphname = whitelenticularbracketleft;
lastChange = "2023-08-27 13:27:32 +0000";
layers = (
{
layerId = m01;
shapes = (
{
closed = 1;
nodes = (
(464,-38,o),
(346,90,o),
(280,268,o),
(280,380,qs),
(280,492,o),
(346,670,o),
(464,798,o),
(543,835,q),
(543,852,l),
(200,852,l),
(200,-92,l),
(543,-92,l),
(543,-75,l)
);
},
{
closed = 1;
nodes = (
(225,827,l),
(477,827,l),
(441,805,o),
(364,731,o),
(297,623,o),
(255,476,o),
(255,380,qs),
(255,284,o),
(297,137,o),
(364,29,o),
(441,-44,o),
(477,-67,q),
(225,-67,l)
);
}
);
vertWidth = 1000;
width = 571;
}
);
note = uni3016;
unicode = 12310;
},
{
glyphname = whitelenticularbracketright;
lastChange = "2023-08-27 13:27:44 +0000";
layers = (
{
layerId = m01;
shapes = (
{
closed = 1;
nodes = (
(371,-92,l),
(371,852,l),
(28,852,l),
(28,835,l),
(107,798,o),
(225,670,o),
(291,492,o),
(291,380,qs),
(291,268,o),
(225,90,o),
(107,-38,o),
(28,-75,q),
(28,-92,l)
);
},
{
closed = 1;
nodes = (
(130,-45,o),
(207,29,o),
(274,137,o),
(316,284,o),
(316,380,qs),
(316,476,o),
(274,623,o),
(207,731,o),
(130,804,o),
(94,827,q),
(346,827,l),
(346,-67,l),
(94,-67,l)
);
}
);
vertWidth = 1000;
width = 571;
}
);
note = uni3017;
unicode = 12311;
},
{
glyphname = anglebracketleft.vert;
lastChange = "2023-08-27 13:28:16 +0000";
layers = (
{
layerId = m01;
shapes = (
{
closed = 1;
nodes = (
(929,294,l),
(972,393,l),
(500,680,l),
(28,393,l),
(71,294,l),
(500,555,l)
);
}
);
vertWidth = 640;
width = 1000;
}
);
note = uniFE3F;
unicode = 65087;
},
{
glyphname = anglebracketright.vert;
lastChange = "2023-08-27 13:29:16 +0000";
layers = (
{
layerId = m01;
shapes = (
{
closed = 1;
nodes = (
(71,826,l),
(28,727,l),
(500,440,l),
(972,727,l),
(929,826,l),
(500,565,l)
);
}
);
vertWidth = 640;
width = 1000;
}
);
note = uniFE40;
unicode = 65088;
},
{
glyphname = blacklenticularbracketleft.vert;
lastChange = "2023-08-27 13:28:22 +0000";
layers = (
{
layerId = m01;
shapes = (
{
closed = 1;
nodes = (
(972,680,l),
(28,680,l),
(28,368,l),
(33,368,l),
(80,423,o),
(220,512,o),
(398,566,o),
(500,566,qs),
(603,566,o),
(780,512,o),
(921,423,o),
(967,368,q),
(972,368,l)
);
}
);
vertWidth = 540;
width = 1000;
}
);
note = uniFE3B;
unicode = 65083;
},
{
glyphname = blacklenticularbracketright.vert;
lastChange = "2023-08-27 13:29:22 +0000";
layers = (
{
layerId = m01;
shapes = (
{
closed = 1;
nodes = (
(972,852,l),
(967,852,l),
(921,798,o),
(780,708,o),
(603,654,o),
(500,654,qs),
(398,654,o),
(220,708,o),
(80,798,o),
(33,852,q),
(28,852,l),
(28,540,l),
(972,540,l)
);
}
);
vertWidth = 540;
width = 1000;
}
);
note = uniFE3C;
unicode = 65084;
},
{
glyphname = bracketleft.full;
lastChange = "2023-08-27 13:27:32 +0000";
layers = (
{
layerId = m01;
shapes = (
{
closed = 1;
nodes = (
(459,-92,l),
(459,-13,l),
(310,-13,l),
(310,773,l),
(459,773,l),
(459,852,l),
(200,852,l),
(200,-92,l)
);
}
);
vertWidth = 1000;
width = 487;
}
);
note = uniFF3B;
unicode = 65339;
},
{
glyphname = bracketright.full;
lastChange = "2023-08-27 13:27:44 +0000";
layers = (
{
layerId = m01;
shapes = (
{
closed = 1;
nodes = (
(28,-92,l),
(28,-13,l),
(177,-13,l),
(177,773,l),
(28,773,l),
(28,852,l),
(287,852,l),
(287,-92,l)
);
}
);
vertWidth = 1000;
width = 487;
}
);
note = uniFF3D;
unicode = 65341;
},
{
glyphname = cornerbracketleft.vert;
lastChange = "2023-08-27 13:28:27 +0000";
layers = (
{
layerId = m01;
shapes = (
{
closed = 1;
nodes = (
(282,567,l),
(857,567,l),
(857,348,l),
(975,348,l),
(975,680,l),
(282,680,l)
);
}
);
vertWidth = 560;
width = 1000;
}
);
note = uniFE41;
unicode = 65089;
},
{
glyphname = cornerbracketright.vert;
lastChange = "2023-08-27 13:29:29 +0000";
layers = (
{
layerId = m01;
shapes = (
{
closed = 1;
nodes = (
(718,618,l),
(143,618,l),
(143,836,l),
(25,836,l),
(25,505,l),
(718,505,l)
);
}
);
vertWidth = 575;
width = 1000;
}
);
note = uniFE42;
unicode = 65090;
},
{
glyphname = dblanglebracketleft.vert;
lastChange = "2023-08-27 13:28:34 +0000";
layers = (
{
layerId = m01;
shapes = (
{
closed = 1;
nodes = (
(946,398,l),
(972,481,l),
(500,680,l),
(28,481,l),
(54,398,l),
(500,587,l)
);
},
{
closed = 1;
nodes = (
(946,225,l),
(972,309,l),
(500,507,l),
(28,309,l),
(54,225,l),
(500,415,l)
);
}
);
vertWidth = 682;
width = 1000;
}
);
note = uniFE3D;
unicode = 65085;
},
{
glyphname = dblanglebracketright.vert;
lastChange = "2023-08-27 13:29:35 +0000";
layers = (
{
layerId = m01;
shapes = (
{
closed = 1;
nodes = (
(54,680,l),
(28,597,l),
(500,398,l),
(972,597,l),
(946,680,l),
(500,491,l)
);
},
{
closed = 1;
nodes = (
(54,853,l),
(28,769,l),
(500,571,l),
(972,769,l),
(946,853,l),
(500,663,l)
);
}
);
vertWidth = 682;
width = 1000;
}
);
note = uniFE3E;
unicode = 65086;
},
{
glyphname = parenleft.full;
lastChange = "2023-08-27 13:27:32 +0000";
layers = (
{
layerId = m01;
shapes = (
{
closed = 1;
nodes = (
(254,95,o),
(344,-47,o),
(397,-100,q),
(492,-58,l),
(442,-4,o),
(361,126,o),
(313,285,o),
(313,380,qs),
(313,476,o),
(361,634,o),
(442,765,o),
(492,818,q),
(397,860,l),
(344,807,o),
(254,665,o),
(200,487,o),
(200,380,qs),
(200,273,o)
);
}
);
vertWidth = 1000;
width = 537;
}
);
note = uniFF08;
unicode = 65288;
},
{
glyphname = parenright.full;
lastChange = "2023-08-27 13:27:44 +0000";
layers = (
{
layerId = m01;
shapes = (
{
closed = 1;
nodes = (
(283,665,o),
(194,807,o),
(140,860,q),
(45,818,l),
(95,765,o),
(176,634,o),
(224,476,o),
(224,380,qs),
(224,285,o),
(176,126,o),
(95,-4,o),
(45,-58,q),
(140,-100,l),
(194,-47,o),
(283,95,o),
(337,273,o),
(337,380,qs),
(337,487,o)
);
}
);
vertWidth = 1000;
width = 537;
}
);
note = uniFF09;
unicode = 65289;
},
{
glyphname = tortoiseshellbracketleft.vert;
lastChange = "2023-08-27 13:28:40 +0000";
layers = (
{
layerId = m01;
shapes = (
{
closed = 1;
nodes = (
(95,398,l),
(205,570,l),
(795,570,l),
(905,398,l),
(984,446,l),
(834,680,l),
(166,680,l),
(16,446,l)
);
}
);
vertWidth = 507;
width = 1000;
}
);
note = uniFE39;
unicode = 65081;
},
{
glyphname = tortoiseshellbracketright.vert;
lastChange = "2023-08-27 13:29:41 +0000";
layers = (
{
layerId = m01;
shapes = (
{
closed = 1;
nodes = (
(95,855,l),
(205,683,l),
(795,683,l),
(905,855,l),
(984,807,l),
(834,573,l),
(166,573,l),
(16,807,l)
);
}
);
vertWidth = 507;
width = 1000;
}
);
note = uniFE3A;
unicode = 65082;
},
{
glyphname = whitecornerbracketleft.vert;
lastChange = "2023-08-27 13:28:46 +0000";
layers = (
{
layerId = m01;
shapes = (
{
closed = 1;
nodes = (
(972,323,l),
(972,680,l),
(311,680,l),
(311,502,l),
(784,502,l),
(784,323,l)
);
},
{
closed = 1;
nodes = (
(828,367,l),
(828,546,l),
(355,546,l),
(355,636,l),
(928,636,l),
(928,367,l)
);
}
);
vertWidth = 585;
width = 1000;
}
);
note = uniFE43;
unicode = 65091;
},
{
glyphname = whitecornerbracketright.vert;
lastChange = "2023-08-27 13:29:47 +0000";
layers = (
{
layerId = m01;
shapes = (
{
closed = 1;
nodes = (
(28,852,l),
(28,495,l),
(689,495,l),
(689,673,l),
(216,673,l),
(216,852,l)
);
},
{
closed = 1;
nodes = (
(172,808,l),
(172,629,l),
(645,629,l),
(645,539,l),
(72,539,l),
(72,808,l)
);
}
);
vertWidth = 585;
width = 1000;
}
);
note = uniFE44;
unicode = 65092;
},
{
glyphname = whitelenticularbracketleft.vert;
lastChange = "2023-08-27 13:28:52 +0000";
layers = (
{
layerId = m01;
shapes = (
{
closed = 1;
nodes = (
(82,416,o),
(210,534,o),
(388,600,o),
(500,600,qs),
(612,600,o),
(790,534,o),
(918,416,o),
(955,337,q),
(972,337,l),
(972,680,l),
(28,680,l),
(28,337,l),
(45,337,l)
);
},
{
closed = 1;
nodes = (
(947,655,l),
(947,403,l),
(925,439,o),
(851,516,o),
(743,583,o),
(596,625,o),
(500,625,qs),
(404,625,o),
(257,583,o),
(149,516,o),
(76,439,o),
(53,403,q),
(53,655,l)
);
}
);
vertWidth = 571;
width = 1000;
}
);
note = uniFE17;
unicode = 65047;
},
{
glyphname = whitelenticularbracketright.vert;
lastChange = "2023-08-27 13:29:53 +0000";
layers = (
{
layerId = m01;
shapes = (
{
closed = 1;
nodes = (
(28,509,l),
(972,509,l),
(972,852,l),
(955,852,l),
(918,773,o),
(790,655,o),
(612,589,o),
(500,589,qs),
(388,589,o),
(210,655,o),
(82,773,o),
(45,852,q),
(28,852,l)
);
},
{
closed = 1;
nodes = (
(75,750,o),
(149,673,o),
(257,606,o),
(404,564,o),
(500,564,qs),
(596,564,o),
(743,606,o),
(851,673,o),
(924,750,o),
(947,786,q),
(947,534,l),
(53,534,l),
(53,786,l)
);
}
);
vertWidth = 571;
width = 1000;
}
);
note = uniFE18;
unicode = 65048;
},
{
glyphname = braceleft.full.vert;
lastChange = "2023-08-27 13:28:58 +0000";
layers = (
{
layerId = m01;
shapes = (
{
closed = 1;
nodes = (
(101,394,l),
(101,424,ls),
(101,463,o),
(137,488,o),
(186,488,qs),
(232,488,o),
(319,483,o),
(371,483,qs),
(432,483,o),
(488,521,o),
(498,562,q),
(502,562,l),
(513,521,o),
(569,483,o),
(629,483,qs),
(681,483,o),
(770,488,o),
(815,488,qs),
(864,488,o),
(900,463,o),
(900,424,qs),
(900,394,l),
(976,394,l),
(976,458,ls),
(976,528,o),
(910,596,o),
(821,596,qs),
(782,596,o),
(721,591,o),
(662,586,o),
(625,586,qs),
(606,586,o),
(568,603,o),
(543,645,o),
(542,680,q),
(459,680,l),
(458,645,o),
(433,603,o),
(396,586,o),
(375,586,qs),
(340,586,o),
(280,591,o),
(219,596,o),
(179,596,qs),
(91,596,o),
(24,528,o),
(24,458,qs),
(24,394,l)
);
}
);
vertWidth = 515;
width = 1000;
}
);
note = uniFE37;
unicode = 65079;
},
{
glyphname = braceright.full.vert;
lastChange = "2023-08-27 13:29:59 +0000";
layers = (
{
layerId = m01;
shapes = (
{
closed = 1;
nodes = (
(899,851,l),
(899,821,ls),
(899,783,o),
(863,757,o),
(814,757,qs),
(768,757,o),
(681,762,o),
(629,762,qs),
(569,762,o),
(512,724,o),
(502,683,q),
(498,683,l),
(488,724,o),
(431,762,o),
(371,762,qs),
(319,762,o),
(231,757,o),
(185,757,qs),
(136,757,o),
(100,783,o),
(100,821,qs),
(100,851,l),
(24,851,l),
(24,787,ls),
(24,717,o),
(90,649,o),
(179,649,qs),
(219,649,o),
(279,654,o),
(339,659,o),
(375,659,qs),
(395,659,o),
(432,642,o),
(457,601,o),
(458,565,q),
(541,565,l),
(542,601,o),
(567,642,o),
(605,659,o),
(625,659,qs),
(661,659,o),
(720,654,o),
(781,649,o),
(821,649,qs),
(909,649,o),
(976,717,o),
(976,787,qs),
(976,851,l)
);
}
);
vertWidth = 515;
width = 1000;
}
);
note = uniFE38;
unicode = 65080;
},
{
glyphname = bracketleft.full.vert;
lastChange = "2023-08-27 13:29:04 +0000";
layers = (
{
layerId = m01;
shapes = (
{
closed = 1;
nodes = (
(28,421,l),
(107,421,l),
(107,570,l),
(893,570,l),
(893,421,l),
(972,421,l),
(972,680,l),
(28,680,l)
);
}
);
vertWidth = 487;
width = 1000;
}
);
note = uniFE47;
unicode = 65095;
},
{
glyphname = bracketright.full.vert;
lastChange = "2023-08-27 13:30:06 +0000";
layers = (
{
layerId = m01;
shapes = (
{
closed = 1;
nodes = (
(28,852,l),
(107,852,l),
(107,703,l),
(893,703,l),
(893,852,l),
(972,852,l),
(972,593,l),
(28,593,l)
);
}
);
vertWidth = 487;
width = 1000;
}
);
note = uniFE48;
unicode = 65096;
},
{
glyphname = parenleft.full.vert;
lastChange = "2023-08-27 13:29:11 +0000";
layers = (
{
layerId = m01;
shapes = (
{
closed = 1;
nodes = (
(215,626,o),
(73,537,o),
(20,483,q),
(62,388,l),
(116,438,o),
(246,519,o),
(405,567,o),
(500,567,qs),
(596,567,o),
(754,519,o),
(885,438,o),
(938,388,q),
(980,483,l),
(927,537,o),
(785,626,o),
(607,680,o),
(500,680,qs),
(393,680,o)
);
}
);
vertWidth = 537;
width = 1000;
}
);
note = uniFE35;
unicode = 65077;
},
{
glyphname = parenright.full.vert;
lastChange = "2023-08-27 13:30:12 +0000";
layers = (
{
layerId = m01;
shapes = (
{
closed = 1;
nodes = (
(785,597,o),
(927,687,o),
(980,740,q),
(938,835,l),
(885,785,o),
(754,704,o),
(596,656,o),
(500,656,qs),
(405,656,o),
(246,704,o),
(116,785,o),
(62,835,q),
(20,740,l),
(73,687,o),
(215,597,o),
(393,543,o),
(500,543,qs),
(607,543,o)
);
}
